<svg xmlns="http://www.w3.org/2000/svg" xmlns:xlink="http://www.w3.org/1999/xlink" width="8420" height="1220" viewBox="120 40 8420 1220" font-family='-apple-system,BlinkMacSystemFont,"Segoe UI",Roboto,"Helvetica Neue",Arial,sans-serif'>
<defs><marker id="seq-end" viewBox="0 0 12 12" refX="11" refY="6" markerWidth="8" markerHeight="8" orient="auto-start-reverse"><path d="M 1 1 L 11 6 L 1 11 z" fill="#282828" stroke="#282828" stroke-linejoin="round"/></marker></defs>
<rect x="120" y="40" width="8420" height="1220" fill="#ffffff"/>
<rect x="160.0" y="80.0" width="8340.0" height="1140.0" fill="none" stroke="#282828" stroke-width="2"/>
<text transform="rotate(-90 175.0 650.0)" x="175.0" y="650.0" text-anchor="middle" dominant-baseline="middle" font-size="12" font-weight="600" fill="#282828">Quy trình Tìm kiếm, Lựa chọn hành trình, Thanh toán và Xuất vé máy bay</text>
<rect x="190.0" y="80.0" width="8310.0" height="360.0" fill="none" stroke="#282828" stroke-width="1"/>
<text transform="rotate(-90 205.0 260.0)" x="205.0" y="260.0" text-anchor="middle" dominant-baseline="middle" font-size="12" font-weight="600" fill="#282828">Khách hàng</text>
<rect x="190.0" y="440.0" width="8310.0" height="210.0" fill="none" stroke="#282828" stroke-width="1"/>
<text transform="rotate(-90 205.0 545.0)" x="205.0" y="545.0" text-anchor="middle" dominant-baseline="middle" font-size="12" font-weight="600" fill="#282828">Ứng dụng MoMo / Nền tảng Core</text>
<rect x="190.0" y="650.0" width="8310.0" height="360.0" fill="none" stroke="#282828" stroke-width="1"/>
<text transform="rotate(-90 205.0 830.0)" x="205.0" y="830.0" text-anchor="middle" dominant-baseline="middle" font-size="12" font-weight="600" fill="#282828">Bộ phận CSKH / Xử lý ngoại lệ</text>
<rect x="190.0" y="1010.0" width="8310.0" height="210.0" fill="none" stroke="#282828" stroke-width="1"/>
<text transform="rotate(-90 205.0 1115.0)" x="205.0" y="1115.0" text-anchor="middle" dominant-baseline="middle" font-size="12" font-weight="600" fill="#282828">Hệ thống Hãng bay / GDS</text>
<path d="M 365.0 185.0 L 467.0 185.0" fill="none" stroke="#282828" stroke-width="1.6" marker-end="url(#seq-end)"/>
<path d="M 617.0 185.0 L 640.0 185.0 L 640.0 545.0 L 662.0 545.0" fill="none" stroke="#282828" stroke-width="1.6" marker-end="url(#seq-end)"/>
<path d="M 812.0 545.0 L 857.0 545.0" fill="none" stroke="#282828" stroke-width="1.6" marker-end="url(#seq-end)"/>
<path d="M 1007.0 545.0 L 1055.0 545.0 L 1055.0 185.0 L 1102.0 185.0" fill="none" stroke="#282828" stroke-width="1.6" marker-end="url(#seq-end)"/>
<path d="M 1152.0 185.0 L 1247.0 185.0" fill="none" stroke="#282828" stroke-width="1.6" marker-end="url(#seq-end)"/>
<text x="1199.5" y="179.0" text-anchor="middle" font-size="11" fill="#282828" paint-order="stroke" stroke="#ffffff" stroke-width="3.5">Có</text>
<path d="M 1152.0 185.0 L 1200.0 185.0 L 1200.0 335.0 L 1247.0 335.0" fill="none" stroke="#282828" stroke-width="1.6" marker-end="url(#seq-end)"/>
<text x="1200.0" y="254.0" text-anchor="middle" font-size="11" fill="#282828" paint-order="stroke" stroke="#ffffff" stroke-width="3.5">Không</text>
<path d="M 1397.0 185.0 L 1492.0 185.0" fill="none" stroke="#282828" stroke-width="1.6" marker-end="url(#seq-end)"/>
<path d="M 1397.0 335.0 L 1445.0 335.0 L 1445.0 185.0 L 1492.0 185.0" fill="none" stroke="#282828" stroke-width="1.6" marker-end="url(#seq-end)"/>
<path d="M 1542.0 185.0 L 1637.0 185.0" fill="none" stroke="#282828" stroke-width="1.6" marker-end="url(#seq-end)"/>
<path d="M 1787.0 185.0 L 1882.0 185.0" fill="none" stroke="#282828" stroke-width="1.6" marker-end="url(#seq-end)"/>
<path d="M 1932.0 185.0 L 2077.0 185.0" fill="none" stroke="#282828" stroke-width="1.6" marker-end="url(#seq-end)"/>
<text x="2004.5" y="179.0" text-anchor="middle" font-size="11" fill="#282828" paint-order="stroke" stroke="#ffffff" stroke-width="3.5">Nội địa</text>
<path d="M 2127.0 185.0 L 2222.0 185.0" fill="none" stroke="#282828" stroke-width="1.6" marker-end="url(#seq-end)"/>
<text x="2174.5" y="179.0" text-anchor="middle" font-size="11" fill="#282828" paint-order="stroke" stroke="#ffffff" stroke-width="3.5">Có</text>
<path d="M 2372.0 185.0 L 2467.0 185.0" fill="none" stroke="#282828" stroke-width="1.6" marker-end="url(#seq-end)"/>
<path d="M 2127.0 185.0 L 2467.0 185.0" fill="none" stroke="#282828" stroke-width="1.6" marker-end="url(#seq-end)"/>
<text x="2297.0" y="179.0" text-anchor="middle" font-size="11" fill="#282828" paint-order="stroke" stroke="#ffffff" stroke-width="3.5">Không</text>
<path d="M 2517.0 185.0 L 2662.0 185.0" fill="none" stroke="#282828" stroke-width="1.6" marker-end="url(#seq-end)"/>
<path d="M 2712.0 185.0 L 2807.0 185.0" fill="none" stroke="#282828" stroke-width="1.6" marker-end="url(#seq-end)"/>
<text x="2759.5" y="179.0" text-anchor="middle" font-size="11" fill="#282828" paint-order="stroke" stroke="#ffffff" stroke-width="3.5">Có</text>
<path d="M 2957.0 185.0 L 3052.0 185.0" fill="none" stroke="#282828" stroke-width="1.6" marker-end="url(#seq-end)"/>
<path d="M 2712.0 185.0 L 3052.0 185.0" fill="none" stroke="#282828" stroke-width="1.6" marker-end="url(#seq-end)"/>
<text x="2882.0" y="179.0" text-anchor="middle" font-size="11" fill="#282828" paint-order="stroke" stroke="#ffffff" stroke-width="3.5">Không</text>
<path d="M 3102.0 185.0 L 3247.0 185.0" fill="none" stroke="#282828" stroke-width="1.6" marker-end="url(#seq-end)"/>
<path d="M 3297.0 185.0 L 3392.0 185.0" fill="none" stroke="#282828" stroke-width="1.6" marker-end="url(#seq-end)"/>
<text x="3344.5" y="179.0" text-anchor="middle" font-size="11" fill="#282828" paint-order="stroke" stroke="#ffffff" stroke-width="3.5">Có</text>
<path d="M 3542.0 185.0 L 3637.0 185.0" fill="none" stroke="#282828" stroke-width="1.6" marker-end="url(#seq-end)"/>
<path d="M 3297.0 185.0 L 3637.0 185.0" fill="none" stroke="#282828" stroke-width="1.6" marker-end="url(#seq-end)"/>
<text x="3467.0" y="179.0" text-anchor="middle" font-size="11" fill="#282828" paint-order="stroke" stroke="#ffffff" stroke-width="3.5">Không</text>
<path d="M 3687.0 185.0 L 3832.0 185.0" fill="none" stroke="#282828" stroke-width="1.6" marker-end="url(#seq-end)"/>
<path d="M 3882.0 185.0 L 3977.0 185.0" fill="none" stroke="#282828" stroke-width="1.6" marker-end="url(#seq-end)"/>
<text x="3929.5" y="179.0" text-anchor="middle" font-size="11" fill="#282828" paint-order="stroke" stroke="#ffffff" stroke-width="3.5">Có</text>
<path d="M 4127.0 185.0 L 4222.0 185.0" fill="none" stroke="#282828" stroke-width="1.6" marker-end="url(#seq-end)"/>
<path d="M 3882.0 185.0 L 4222.0 185.0" fill="none" stroke="#282828" stroke-width="1.6" marker-end="url(#seq-end)"/>
<text x="4052.0" y="179.0" text-anchor="middle" font-size="11" fill="#282828" paint-order="stroke" stroke="#ffffff" stroke-width="3.5">Không</text>
<path d="M 1932.0 185.0 L 4222.0 185.0" fill="none" stroke="#282828" stroke-width="1.6" marker-end="url(#seq-end)"/>
<text x="3077.0" y="179.0" text-anchor="middle" font-size="11" fill="#282828" paint-order="stroke" stroke="#ffffff" stroke-width="3.5">Quốc tế</text>
<path d="M 4272.0 185.0 L 4417.0 185.0" fill="none" stroke="#282828" stroke-width="1.6" marker-end="url(#seq-end)"/>
<path d="M 4467.0 185.0 L 4562.0 185.0" fill="none" stroke="#282828" stroke-width="1.6" marker-end="url(#seq-end)"/>
<text x="4514.5" y="179.0" text-anchor="middle" font-size="11" fill="#282828" paint-order="stroke" stroke="#ffffff" stroke-width="3.5">Có</text>
<path d="M 4712.0 185.0 L 4807.0 185.0" fill="none" stroke="#282828" stroke-width="1.6" marker-end="url(#seq-end)"/>
<path d="M 4467.0 185.0 L 4807.0 185.0" fill="none" stroke="#282828" stroke-width="1.6" marker-end="url(#seq-end)"/>
<text x="4637.0" y="179.0" text-anchor="middle" font-size="11" fill="#282828" paint-order="stroke" stroke="#ffffff" stroke-width="3.5">Không</text>
<path d="M 4857.0 185.0 L 4905.0 185.0 L 4905.0 545.0 L 4952.0 545.0" fill="none" stroke="#282828" stroke-width="1.6" marker-end="url(#seq-end)"/>
<path d="M 5102.0 545.0 L 5197.0 545.0" fill="none" stroke="#282828" stroke-width="1.6" marker-end="url(#seq-end)"/>
<path d="M 5222.0 570.0 L 5222.0 616.0 L 542.0 616.0 L 542.0 221.0" fill="none" stroke="#282828" stroke-width="1.6" marker-end="url(#seq-end)"/>
<text x="2882.0" y="610.0" text-anchor="middle" font-size="11" fill="#282828" paint-order="stroke" stroke="#ffffff" stroke-width="3.5">Hết hạn</text>
<path d="M 5247.0 545.0 L 5295.0 545.0 L 5295.0 185.0 L 5342.0 185.0" fill="none" stroke="#282828" stroke-width="1.6" marker-end="url(#seq-end)"/>
<text x="5295.0" y="359.0" text-anchor="middle" font-size="11" fill="#282828" paint-order="stroke" stroke="#ffffff" stroke-width="3.5">Còn hạn</text>
<path d="M 5492.0 185.0 L 5515.0 185.0 L 5515.0 545.0 L 5537.0 545.0" fill="none" stroke="#282828" stroke-width="1.6" marker-end="url(#seq-end)"/>
<path d="M 5687.0 545.0 L 5782.0 545.0" fill="none" stroke="#282828" stroke-width="1.6" marker-end="url(#seq-end)"/>
<path d="M 5832.0 545.0 L 5984.0 545.0" fill="none" stroke="#282828" stroke-width="1.6" marker-end="url(#seq-end)"/>
<text x="5908.0" y="539.0" text-anchor="middle" font-size="11" fill="#282828" paint-order="stroke" stroke="#ffffff" stroke-width="3.5">Thất bại</text>
<path d="M 5832.0 545.0 L 5880.0 545.0 L 5880.0 755.0 L 5927.0 755.0" fill="none" stroke="#282828" stroke-width="1.6" marker-end="url(#seq-end)"/>
<text x="5880.0" y="644.0" text-anchor="middle" font-size="11" fill="#282828" paint-order="stroke" stroke="#ffffff" stroke-width="3.5">Pending</text>
<path d="M 6077.0 755.0 L 6172.0 755.0" fill="none" stroke="#282828" stroke-width="1.6" marker-end="url(#seq-end)"/>
<path d="M 6222.0 755.0 L 6317.0 755.0" fill="none" stroke="#282828" stroke-width="1.6" marker-end="url(#seq-end)"/>
<text x="6269.5" y="749.0" text-anchor="middle" font-size="11" fill="#282828" paint-order="stroke" stroke="#ffffff" stroke-width="3.5">Có</text>
<path d="M 6222.0 755.0 L 6270.0 755.0 L 6270.0 905.0 L 6317.0 905.0" fill="none" stroke="#282828" stroke-width="1.6" marker-end="url(#seq-end)"/>
<text x="6270.0" y="824.0" text-anchor="middle" font-size="11" fill="#282828" paint-order="stroke" stroke="#ffffff" stroke-width="3.5">Không</text>
<path d="M 6467.0 755.0 L 6562.0 755.0" fill="none" stroke="#282828" stroke-width="1.6" marker-end="url(#seq-end)"/>
<path d="M 6467.0 905.0 L 6515.0 905.0 L 6515.0 755.0 L 6562.0 755.0" fill="none" stroke="#282828" stroke-width="1.6" marker-end="url(#seq-end)"/>
<path d="M 6612.0 755.0 L 6757.0 755.0" fill="none" stroke="#282828" stroke-width="1.6" marker-end="url(#seq-end)"/>
<path d="M 6807.0 755.0 L 6855.0 755.0 L 6855.0 905.0 L 6902.0 905.0" fill="none" stroke="#282828" stroke-width="1.6" marker-end="url(#seq-end)"/>
<text x="6855.0" y="824.0" text-anchor="middle" font-size="11" fill="#282828" paint-order="stroke" stroke="#ffffff" stroke-width="3.5">Không</text>
<path d="M 7052.0 905.0 L 7103.0 905.0 L 7103.0 755.0 L 7154.0 755.0" fill="none" stroke="#282828" stroke-width="1.6" marker-end="url(#seq-end)"/>
<path d="M 6807.0 755.0 L 6902.0 755.0" fill="none" stroke="#282828" stroke-width="1.6" marker-end="url(#seq-end)"/>
<text x="6854.5" y="749.0" text-anchor="middle" font-size="11" fill="#282828" paint-order="stroke" stroke="#ffffff" stroke-width="3.5">Còn</text>
<path d="M 7052.0 755.0 L 7100.0 755.0 L 7100.0 905.0 L 7147.0 905.0" fill="none" stroke="#282828" stroke-width="1.6" marker-end="url(#seq-end)"/>
<path d="M 7197.0 905.0 L 7292.0 905.0" fill="none" stroke="#282828" stroke-width="1.6" marker-end="url(#seq-end)"/>
<text x="7244.5" y="899.0" text-anchor="middle" font-size="11" fill="#282828" paint-order="stroke" stroke="#ffffff" stroke-width="3.5">Đã có</text>
<path d="M 7197.0 905.0 L 7245.0 905.0 L 7245.0 755.0 L 7292.0 755.0" fill="none" stroke="#282828" stroke-width="1.6" marker-end="url(#seq-end)"/>
<text x="7245.0" y="824.0" text-anchor="middle" font-size="11" fill="#282828" paint-order="stroke" stroke="#ffffff" stroke-width="3.5">Chưa có</text>
<path d="M 7442.0 755.0 L 7465.0 755.0 L 7465.0 1115.0 L 7487.0 1115.0" fill="none" stroke="#282828" stroke-width="1.6" marker-end="url(#seq-end)"/>
<path d="M 5832.0 545.0 L 6660.0 545.0 L 6660.0 1115.0 L 7487.0 1115.0" fill="none" stroke="#282828" stroke-width="1.6" marker-end="url(#seq-end)"/>
<text x="6660.0" y="824.0" text-anchor="middle" font-size="11" fill="#282828" paint-order="stroke" stroke="#ffffff" stroke-width="3.5">Thành công</text>
<path d="M 7637.0 1115.0 L 7682.0 1115.0" fill="none" stroke="#282828" stroke-width="1.6" marker-end="url(#seq-end)"/>
<path d="M 7442.0 905.0 L 7660.0 905.0 L 7660.0 545.0 L 7877.0 545.0" fill="none" stroke="#282828" stroke-width="1.6" marker-end="url(#seq-end)"/>
<path d="M 7832.0 1115.0 L 7855.0 1115.0 L 7855.0 545.0 L 7877.0 545.0" fill="none" stroke="#282828" stroke-width="1.6" marker-end="url(#seq-end)"/>
<path d="M 8027.0 545.0 L 8072.0 545.0" fill="none" stroke="#282828" stroke-width="1.6" marker-end="url(#seq-end)"/>
<path d="M 8222.0 545.0 L 8273.0 545.0 L 8273.0 185.0 L 8324.0 185.0" fill="none" stroke="#282828" stroke-width="1.6" marker-end="url(#seq-end)"/>
<circle cx="347.0" cy="185.0" r="18.0" fill="#ffffff" stroke="#282828" stroke-width="1.8"/>
<text x="347.0" y="217.0" text-anchor="middle" font-size="11" fill="#282828" paint-order="stroke" stroke="#ffffff" stroke-width="3.5">Khách hàng có nhu cầu</text>
<text x="347.0" y="230.0" text-anchor="middle" font-size="11" fill="#282828" paint-order="stroke" stroke="#ffffff" stroke-width="3.5">mua vé</text>
<rect x="467.0" y="149.0" width="150.0" height="72.0" rx="8" ry="8" fill="#ffffff" stroke="#282828" stroke-width="1.8"/>
<text x="542.0" y="178.5" text-anchor="middle" dominant-baseline="middle" font-size="11" fill="#282828">Nhập thông tin tìm</text>
<text x="542.0" y="191.5" text-anchor="middle" dominant-baseline="middle" font-size="11" fill="#282828">kiếm hành trình</text>
<rect x="662.0" y="509.0" width="150.0" height="72.0" rx="8" ry="8" fill="#ffffff" stroke="#282828" stroke-width="1.8"/>
<text x="737.0" y="538.5" text-anchor="middle" dominant-baseline="middle" font-size="11" fill="#282828">Kiểm tra bộ đệm và gọi</text>
<text x="737.0" y="551.5" text-anchor="middle" dominant-baseline="middle" font-size="11" fill="#282828">API Hãng/GDS</text>
<rect x="857.0" y="509.0" width="150.0" height="72.0" rx="8" ry="8" fill="#ffffff" stroke="#282828" stroke-width="1.8"/>
<text x="932.0" y="538.5" text-anchor="middle" dominant-baseline="middle" font-size="11" fill="#282828">Hiển thị danh sách</text>
<text x="932.0" y="551.5" text-anchor="middle" dominant-baseline="middle" font-size="11" fill="#282828">chuyến bay và giá vé</text>
<path d="M 1127.0 160.0 L 1152.0 185.0 L 1127.0 210.0 L 1102.0 185.0 z" fill="#ffffff" stroke="#282828" stroke-width="1.8"/>
<path d="M 1114.0 172.0 L 1140.0 198.0 M 1140.0 172.0 L 1114.0 198.0" stroke="#282828" stroke-width="2.6" fill="none"/>
<text x="1127.0" y="224.0" text-anchor="middle" font-size="11" font-weight="500" fill="#282828" paint-order="stroke" stroke="#ffffff" stroke-width="3.5">Khứ hồi?</text>
<rect x="1247.0" y="149.0" width="150.0" height="72.0" rx="8" ry="8" fill="#ffffff" stroke="#282828" stroke-width="1.8"/>
<text x="1322.0" y="178.5" text-anchor="middle" dominant-baseline="middle" font-size="11" fill="#282828">Chọn chuyến đi và</text>
<text x="1322.0" y="191.5" text-anchor="middle" dominant-baseline="middle" font-size="11" fill="#282828">chuyến về</text>
<rect x="1247.0" y="299.0" width="150.0" height="72.0" rx="8" ry="8" fill="#ffffff" stroke="#282828" stroke-width="1.8"/>
<text x="1322.0" y="335.0" text-anchor="middle" dominant-baseline="middle" font-size="11" fill="#282828">Chọn chuyến 1 chiều</text>
<path d="M 1517.0 160.0 L 1542.0 185.0 L 1517.0 210.0 L 1492.0 185.0 z" fill="#ffffff" stroke="#282828" stroke-width="1.8"/>
<path d="M 1504.0 172.0 L 1530.0 198.0 M 1530.0 172.0 L 1504.0 198.0" stroke="#282828" stroke-width="2.6" fill="none"/>
<rect x="1637.0" y="149.0" width="150.0" height="72.0" rx="8" ry="8" fill="#ffffff" stroke="#282828" stroke-width="1.8"/>
<text x="1712.0" y="178.5" text-anchor="middle" dominant-baseline="middle" font-size="11" fill="#282828">Chọn hạng vé và nhập</text>
<text x="1712.0" y="191.5" text-anchor="middle" dominant-baseline="middle" font-size="11" fill="#282828">thông tin hành khách</text>
<path d="M 1907.0 160.0 L 1932.0 185.0 L 1907.0 210.0 L 1882.0 185.0 z" fill="#ffffff" stroke="#282828" stroke-width="1.8"/>
<path d="M 1894.0 172.0 L 1920.0 198.0 M 1920.0 172.0 L 1894.0 198.0" stroke="#282828" stroke-width="2.6" fill="none"/>
<text x="1907.0" y="224.0" text-anchor="middle" font-size="11" font-weight="500" fill="#282828" paint-order="stroke" stroke="#ffffff" stroke-width="3.5">Hãng nội địa / quốc tế?</text>
<path d="M 2102.0 160.0 L 2127.0 185.0 L 2102.0 210.0 L 2077.0 185.0 z" fill="#ffffff" stroke="#282828" stroke-width="1.8"/>
<path d="M 2089.0 172.0 L 2115.0 198.0 M 2115.0 172.0 L 2089.0 198.0" stroke="#282828" stroke-width="2.6" fill="none"/>
<text x="2102.0" y="224.0" text-anchor="middle" font-size="11" font-weight="500" fill="#282828" paint-order="stroke" stroke="#ffffff" stroke-width="3.5">Phải hãng Vietjet Air?</text>
<rect x="2222.0" y="149.0" width="150.0" height="72.0" rx="8" ry="8" fill="#ffffff" stroke="#282828" stroke-width="1.8"/>
<text x="2297.0" y="178.5" text-anchor="middle" dominant-baseline="middle" font-size="11" fill="#282828">Nhập thẻ khách hàng</text>
<text x="2297.0" y="191.5" text-anchor="middle" dominant-baseline="middle" font-size="11" fill="#282828">thường xuyên</text>
<path d="M 2492.0 160.0 L 2517.0 185.0 L 2492.0 210.0 L 2467.0 185.0 z" fill="#ffffff" stroke="#282828" stroke-width="1.8"/>
<path d="M 2479.0 172.0 L 2505.0 198.0 M 2505.0 172.0 L 2479.0 198.0" stroke="#282828" stroke-width="2.6" fill="none"/>
<path d="M 2687.0 160.0 L 2712.0 185.0 L 2687.0 210.0 L 2662.0 185.0 z" fill="#ffffff" stroke="#282828" stroke-width="1.8"/>
<path d="M 2674.0 172.0 L 2700.0 198.0 M 2700.0 172.0 L 2674.0 198.0" stroke="#282828" stroke-width="2.6" fill="none"/>
<text x="2687.0" y="224.0" text-anchor="middle" font-size="11" font-weight="500" fill="#282828" paint-order="stroke" stroke="#ffffff" stroke-width="3.5">Chọn chỗ ngồi?</text>
<rect x="2807.0" y="149.0" width="150.0" height="72.0" rx="8" ry="8" fill="#ffffff" stroke="#282828" stroke-width="1.8"/>
<text x="2882.0" y="185.0" text-anchor="middle" dominant-baseline="middle" font-size="11" fill="#282828">Chọn vị trí chỗ ngồi</text>
<path d="M 3077.0 160.0 L 3102.0 185.0 L 3077.0 210.0 L 3052.0 185.0 z" fill="#ffffff" stroke="#282828" stroke-width="1.8"/>
<path d="M 3064.0 172.0 L 3090.0 198.0 M 3090.0 172.0 L 3064.0 198.0" stroke="#282828" stroke-width="2.6" fill="none"/>
<path d="M 3272.0 160.0 L 3297.0 185.0 L 3272.0 210.0 L 3247.0 185.0 z" fill="#ffffff" stroke="#282828" stroke-width="1.8"/>
<path d="M 3259.0 172.0 L 3285.0 198.0 M 3285.0 172.0 L 3259.0 198.0" stroke="#282828" stroke-width="2.6" fill="none"/>
<text x="3272.0" y="224.0" text-anchor="middle" font-size="11" font-weight="500" fill="#282828" paint-order="stroke" stroke="#ffffff" stroke-width="3.5">Mua suất ăn?</text>
<rect x="3392.0" y="149.0" width="150.0" height="72.0" rx="8" ry="8" fill="#ffffff" stroke="#282828" stroke-width="1.8"/>
<text x="3467.0" y="185.0" text-anchor="middle" dominant-baseline="middle" font-size="11" fill="#282828">Chọn món ăn / đồ uống</text>
<path d="M 3662.0 160.0 L 3687.0 185.0 L 3662.0 210.0 L 3637.0 185.0 z" fill="#ffffff" stroke="#282828" stroke-width="1.8"/>
<path d="M 3649.0 172.0 L 3675.0 198.0 M 3675.0 172.0 L 3649.0 198.0" stroke="#282828" stroke-width="2.6" fill="none"/>
<path d="M 3857.0 160.0 L 3882.0 185.0 L 3857.0 210.0 L 3832.0 185.0 z" fill="#ffffff" stroke="#282828" stroke-width="1.8"/>
<path d="M 3844.0 172.0 L 3870.0 198.0 M 3870.0 172.0 L 3844.0 198.0" stroke="#282828" stroke-width="2.6" fill="none"/>
<text x="3857.0" y="224.0" text-anchor="middle" font-size="11" font-weight="500" fill="#282828" paint-order="stroke" stroke="#ffffff" stroke-width="3.5">Mua hành lý ký gửi?</text>
<rect x="3977.0" y="149.0" width="150.0" height="72.0" rx="8" ry="8" fill="#ffffff" stroke="#282828" stroke-width="1.8"/>
<text x="4052.0" y="178.5" text-anchor="middle" dominant-baseline="middle" font-size="11" fill="#282828">Chọn gói hành lý ký</text>
<text x="4052.0" y="191.5" text-anchor="middle" dominant-baseline="middle" font-size="11" fill="#282828">gửi</text>
<path d="M 4247.0 160.0 L 4272.0 185.0 L 4247.0 210.0 L 4222.0 185.0 z" fill="#ffffff" stroke="#282828" stroke-width="1.8"/>
<path d="M 4234.0 172.0 L 4260.0 198.0 M 4260.0 172.0 L 4234.0 198.0" stroke="#282828" stroke-width="2.6" fill="none"/>
<path d="M 4442.0 160.0 L 4467.0 185.0 L 4442.0 210.0 L 4417.0 185.0 z" fill="#ffffff" stroke="#282828" stroke-width="1.8"/>
<path d="M 4429.0 172.0 L 4455.0 198.0 M 4455.0 172.0 L 4429.0 198.0" stroke="#282828" stroke-width="2.6" fill="none"/>
<text x="4442.0" y="224.0" text-anchor="middle" font-size="11" font-weight="500" fill="#282828" paint-order="stroke" stroke="#ffffff" stroke-width="3.5">Mua bảo hiểm du lịch?</text>
<rect x="4562.0" y="149.0" width="150.0" height="72.0" rx="8" ry="8" fill="#ffffff" stroke="#282828" stroke-width="1.8"/>
<text x="4637.0" y="178.5" text-anchor="middle" dominant-baseline="middle" font-size="11" fill="#282828">Chọn gói bảo hiểm toàn</text>
<text x="4637.0" y="191.5" text-anchor="middle" dominant-baseline="middle" font-size="11" fill="#282828">diện</text>
<path d="M 4832.0 160.0 L 4857.0 185.0 L 4832.0 210.0 L 4807.0 185.0 z" fill="#ffffff" stroke="#282828" stroke-width="1.8"/>
<path d="M 4819.0 172.0 L 4845.0 198.0 M 4845.0 172.0 L 4819.0 198.0" stroke="#282828" stroke-width="2.6" fill="none"/>
<rect x="4952.0" y="509.0" width="150.0" height="72.0" rx="8" ry="8" fill="#ffffff" stroke="#282828" stroke-width="1.8"/>
<text x="5027.0" y="538.5" text-anchor="middle" dominant-baseline="middle" font-size="11" fill="#282828">Tạo booking / Tạm giữ</text>
<text x="5027.0" y="551.5" text-anchor="middle" dominant-baseline="middle" font-size="11" fill="#282828">chỗ</text>
<path d="M 5222.0 520.0 L 5247.0 545.0 L 5222.0 570.0 L 5197.0 545.0 z" fill="#ffffff" stroke="#282828" stroke-width="1.8"/>
<path d="M 5209.0 532.0 L 5235.0 558.0 M 5235.0 532.0 L 5209.0 558.0" stroke="#282828" stroke-width="2.6" fill="none"/>
<text x="5222.0" y="584.0" text-anchor="middle" font-size="11" font-weight="500" fill="#282828" paint-order="stroke" stroke="#ffffff" stroke-width="3.5">Còn thời gian giữ vé?</text>
<rect x="5342.0" y="149.0" width="150.0" height="72.0" rx="8" ry="8" fill="#ffffff" stroke="#282828" stroke-width="1.8"/>
<text x="5417.0" y="178.5" text-anchor="middle" dominant-baseline="middle" font-size="11" fill="#282828">Xác nhận đơn và tiến</text>
<text x="5417.0" y="191.5" text-anchor="middle" dominant-baseline="middle" font-size="11" fill="#282828">hành thanh toán</text>
<rect x="5537.0" y="509.0" width="150.0" height="72.0" rx="8" ry="8" fill="#ffffff" stroke="#282828" stroke-width="1.8"/>
<text x="5612.0" y="538.5" text-anchor="middle" dominant-baseline="middle" font-size="11" fill="#282828">Xử lý giao dịch thanh</text>
<text x="5612.0" y="551.5" text-anchor="middle" dominant-baseline="middle" font-size="11" fill="#282828">toán MoMo</text>
<path d="M 5807.0 520.0 L 5832.0 545.0 L 5807.0 570.0 L 5782.0 545.0 z" fill="#ffffff" stroke="#282828" stroke-width="1.8"/>
<path d="M 5794.0 532.0 L 5820.0 558.0 M 5820.0 532.0 L 5794.0 558.0" stroke="#282828" stroke-width="2.6" fill="none"/>
<text x="5807.0" y="584.0" text-anchor="middle" font-size="11" font-weight="500" fill="#282828" paint-order="stroke" stroke="#ffffff" stroke-width="3.5">Kết quả thanh toán?</text>
<circle cx="6002.0" cy="545.0" r="18.0" fill="#ffffff" stroke="#282828" stroke-width="3.4"/>
<text x="6002.0" y="577.0" text-anchor="middle" font-size="11" fill="#282828" paint-order="stroke" stroke="#ffffff" stroke-width="3.5">Mua vé thất bại</text>
<rect x="5927.0" y="719.0" width="150.0" height="72.0" rx="8" ry="8" fill="#ffffff" stroke="#282828" stroke-width="1.8"/>
<text x="6002.0" y="748.5" text-anchor="middle" dominant-baseline="middle" font-size="11" fill="#282828">Tiếp nhận ticket giao</text>
<text x="6002.0" y="761.5" text-anchor="middle" dominant-baseline="middle" font-size="11" fill="#282828">dịch Pending</text>
<path d="M 6197.0 730.0 L 6222.0 755.0 L 6197.0 780.0 L 6172.0 755.0 z" fill="#ffffff" stroke="#282828" stroke-width="1.8"/>
<path d="M 6184.0 742.0 L 6210.0 768.0 M 6210.0 742.0 L 6184.0 768.0" stroke="#282828" stroke-width="2.6" fill="none"/>
<text x="6197.0" y="794.0" text-anchor="middle" font-size="11" font-weight="500" fill="#282828" paint-order="stroke" stroke="#ffffff" stroke-width="3.5">Khách hàng VIP?</text>
<rect x="6317.0" y="719.0" width="150.0" height="72.0" rx="8" ry="8" fill="#ffffff" stroke="#282828" stroke-width="1.8"/>
<text x="6392.0" y="755.0" text-anchor="middle" dominant-baseline="middle" font-size="11" fill="#282828">Hỗ trợ ưu tiên 24/7</text>
<rect x="6317.0" y="869.0" width="150.0" height="72.0" rx="8" ry="8" fill="#ffffff" stroke="#282828" stroke-width="1.8"/>
<text x="6392.0" y="898.5" text-anchor="middle" dominant-baseline="middle" font-size="11" fill="#282828">Hỗ trợ tiêu chuẩn giờ</text>
<text x="6392.0" y="911.5" text-anchor="middle" dominant-baseline="middle" font-size="11" fill="#282828">hành chính</text>
<path d="M 6587.0 730.0 L 6612.0 755.0 L 6587.0 780.0 L 6562.0 755.0 z" fill="#ffffff" stroke="#282828" stroke-width="1.8"/>
<path d="M 6574.0 742.0 L 6600.0 768.0 M 6600.0 742.0 L 6574.0 768.0" stroke="#282828" stroke-width="2.6" fill="none"/>
<path d="M 6782.0 730.0 L 6807.0 755.0 L 6782.0 780.0 L 6757.0 755.0 z" fill="#ffffff" stroke="#282828" stroke-width="1.8"/>
<path d="M 6769.0 742.0 L 6795.0 768.0 M 6795.0 742.0 L 6769.0 768.0" stroke="#282828" stroke-width="2.6" fill="none"/>
<text x="6782.0" y="794.0" text-anchor="middle" font-size="11" font-weight="500" fill="#282828" paint-order="stroke" stroke="#ffffff" stroke-width="3.5">KH còn nhu cầu mua vé?</text>
<rect x="6902.0" y="869.0" width="150.0" height="72.0" rx="8" ry="8" fill="#ffffff" stroke="#282828" stroke-width="1.8"/>
<text x="6977.0" y="898.5" text-anchor="middle" dominant-baseline="middle" font-size="11" fill="#282828">Hỗ trợ hủy đặt vé và</text>
<text x="6977.0" y="911.5" text-anchor="middle" dominant-baseline="middle" font-size="11" fill="#282828">hoàn tiền</text>
<circle cx="7172.0" cy="755.0" r="18.0" fill="#ffffff" stroke="#282828" stroke-width="3.4"/>
<text x="7172.0" y="787.0" text-anchor="middle" font-size="11" fill="#282828" paint-order="stroke" stroke="#ffffff" stroke-width="3.5">Hủy đặt vé và hoàn</text>
<text x="7172.0" y="800.0" text-anchor="middle" font-size="11" fill="#282828" paint-order="stroke" stroke="#ffffff" stroke-width="3.5">tất hoàn tiền</text>
<rect x="6902.0" y="719.0" width="150.0" height="72.0" rx="8" ry="8" fill="#ffffff" stroke="#282828" stroke-width="1.8"/>
<text x="6977.0" y="742.0" text-anchor="middle" dominant-baseline="middle" font-size="11" fill="#282828">Gửi yêu cầu kiểm tra</text>
<text x="6977.0" y="755.0" text-anchor="middle" dominant-baseline="middle" font-size="11" fill="#282828">trạng thái vé sang</text>
<text x="6977.0" y="768.0" text-anchor="middle" dominant-baseline="middle" font-size="11" fill="#282828">Hãng</text>
<path d="M 7172.0 880.0 L 7197.0 905.0 L 7172.0 930.0 L 7147.0 905.0 z" fill="#ffffff" stroke="#282828" stroke-width="1.8"/>
<path d="M 7159.0 892.0 L 7185.0 918.0 M 7185.0 892.0 L 7159.0 918.0" stroke="#282828" stroke-width="2.6" fill="none"/>
<text x="7172.0" y="944.0" text-anchor="middle" font-size="11" font-weight="500" fill="#282828" paint-order="stroke" stroke="#ffffff" stroke-width="3.5">Vé đã xuất trên hệ thống</text>
<text x="7172.0" y="957.0" text-anchor="middle" font-size="11" font-weight="500" fill="#282828" paint-order="stroke" stroke="#ffffff" stroke-width="3.5">Hãng?</text>
<rect x="7292.0" y="869.0" width="150.0" height="72.0" rx="8" ry="8" fill="#ffffff" stroke="#282828" stroke-width="1.8"/>
<text x="7367.0" y="898.5" text-anchor="middle" dominant-baseline="middle" font-size="11" fill="#282828">Xuất vé thủ công trên</text>
<text x="7367.0" y="911.5" text-anchor="middle" dominant-baseline="middle" font-size="11" fill="#282828">hệ thống</text>
<rect x="7292.0" y="719.0" width="150.0" height="72.0" rx="8" ry="8" fill="#ffffff" stroke="#282828" stroke-width="1.8"/>
<text x="7367.0" y="748.5" text-anchor="middle" dominant-baseline="middle" font-size="11" fill="#282828">Giữ chỗ và liên hệ</text>
<text x="7367.0" y="761.5" text-anchor="middle" dominant-baseline="middle" font-size="11" fill="#282828">Hãng xuất vé</text>
<rect x="7487.0" y="1079.0" width="150.0" height="72.0" rx="8" ry="8" fill="#ffffff" stroke="#282828" stroke-width="1.8"/>
<text x="7562.0" y="1108.5" text-anchor="middle" dominant-baseline="middle" font-size="11" fill="#282828">Tiếp nhận và xuất vé</text>
<text x="7562.0" y="1121.5" text-anchor="middle" dominant-baseline="middle" font-size="11" fill="#282828">điện tử</text>
<rect x="7682.0" y="1079.0" width="150.0" height="72.0" rx="8" ry="8" fill="#ffffff" stroke="#282828" stroke-width="1.8"/>
<text x="7757.0" y="1108.5" text-anchor="middle" dominant-baseline="middle" font-size="11" fill="#282828">Trả mã PNR và vé điện</text>
<text x="7757.0" y="1121.5" text-anchor="middle" dominant-baseline="middle" font-size="11" fill="#282828">tử về MoMo</text>
<rect x="7877.0" y="509.0" width="150.0" height="72.0" rx="8" ry="8" fill="#ffffff" stroke="#282828" stroke-width="1.8"/>
<text x="7952.0" y="538.5" text-anchor="middle" dominant-baseline="middle" font-size="11" fill="#282828">Cập nhật vé vào CSDL</text>
<text x="7952.0" y="551.5" text-anchor="middle" dominant-baseline="middle" font-size="11" fill="#282828">và chuyển trạng thái</text>
<rect x="8072.0" y="509.0" width="150.0" height="72.0" rx="8" ry="8" fill="#ffffff" stroke="#282828" stroke-width="1.8"/>
<text x="8147.0" y="538.5" text-anchor="middle" dominant-baseline="middle" font-size="11" fill="#282828">Gửi thông báo và vé</text>
<text x="8147.0" y="551.5" text-anchor="middle" dominant-baseline="middle" font-size="11" fill="#282828">điện tử cho khách hàng</text>
<circle cx="8342.0" cy="185.0" r="18.0" fill="#ffffff" stroke="#282828" stroke-width="3.4"/>
<text x="8342.0" y="217.0" text-anchor="middle" font-size="11" fill="#282828" paint-order="stroke" stroke="#ffffff" stroke-width="3.5">Mua vé thành công</text>
</svg>